<svg width="17" height="17" viewBox="0 0 17 17" fill="none" xmlns="http://www.w3.org/2000/svg">
<path fill-rule="evenodd" clip-rule="evenodd" d="M10.9419 10.9422C11.0348 10.8492 11.145 10.7754 11.2664 10.7251C11.3878 10.6748 11.518 10.6489 11.6494 10.6489C11.7808 10.6489 11.9109 10.6748 12.0323 10.7251C12.1537 10.7754 12.264 10.8492 12.3569 10.9422L16.2069 14.7922C16.3945 14.9797 16.5 15.234 16.5001 15.4993C16.5002 15.7646 16.3949 16.019 16.2074 16.2067C16.0199 16.3943 15.7655 16.4998 15.5002 16.4999C15.235 16.4999 14.9805 16.3947 14.7929 16.2072L10.9429 12.3572C10.8499 12.2643 10.7761 12.154 10.7258 12.0326C10.6755 11.9112 10.6496 11.7811 10.6496 11.6497C10.6496 11.5182 10.6755 11.3881 10.7258 11.2667C10.7761 11.1453 10.8499 11.035 10.9429 10.9422H10.9419Z" fill="#8C8491"/>
<path fill-rule="evenodd" clip-rule="evenodd" d="M6.99988 12.5001C7.72215 12.5001 8.43735 12.3579 9.10464 12.0815C9.77193 11.8051 10.3782 11.3999 10.889 10.8892C11.3997 10.3785 11.8048 9.77217 12.0812 9.10488C12.3576 8.43759 12.4999 7.72239 12.4999 7.00012C12.4999 6.27785 12.3576 5.56265 12.0812 4.89536C11.8048 4.22807 11.3997 3.62176 10.889 3.11103C10.3782 2.60031 9.77193 2.19519 9.10464 1.91878C8.43735 1.64238 7.72215 1.50012 6.99988 1.50012C5.54119 1.50012 4.14224 2.07958 3.11079 3.11103C2.07934 4.14248 1.49988 5.54143 1.49988 7.00012C1.49988 8.45881 2.07934 9.85776 3.11079 10.8892C4.14224 11.9207 5.54119 12.5001 6.99988 12.5001ZM13.4999 7.00012C13.4999 8.72403 12.8151 10.3773 11.5961 11.5963C10.3771 12.8153 8.72379 13.5001 6.99988 13.5001C5.27597 13.5001 3.62267 12.8153 2.40368 11.5963C1.1847 10.3773 0.499878 8.72403 0.499878 7.00012C0.499878 5.27621 1.1847 3.62291 2.40368 2.40393C3.62267 1.18494 5.27597 0.500122 6.99988 0.500122C8.72379 0.500122 10.3771 1.18494 11.5961 2.40393C12.8151 3.62291 13.4999 5.27621 13.4999 7.00012Z" fill="#8C8491"/>
</svg>
